# xmcd
#
# Track frame offsets:
#	150
#	9386
#	19512
#	28766
#	41989
#	52695
#	66175
#	73869
#	81538
#	95155
#
# Disc length: 1398 seconds
#
# Revision: 2
# Processed by: cddbd v1.5.2PL0 Copyright (c) Steve Scherf et al.
# Submitted via: EasyCDDAExtractor 2011.3.0.0
#
DISCID=8405740a
DTITLE=Glen Campbell - Satisfied Mind
DYEAR=1968
DGENRE=Country
TTITLE0=Satisfied Mind
TTITLE1=Weary Lonesome Blues
TTITLE2=Truck Driving Man
TTITLE3=There's More Pretty Girls Than One
TTITLE4=Rainin' On The Mountain
TTITLE5=One Hundred Miles Away From Home
TTITLE6=Kentucky Means Paradise
TTITLE7=Lonesome Jailhouse Blues
TTITLE8=Long Black Limousine
TTITLE9=Poor Boy Lookin' For A Home
EXTD=
EXTT0=
EXTT1=
EXTT2=
EXTT3=
EXTT4=
EXTT5=
EXTT6=
EXTT7=
EXTT8=
EXTT9=
PLAYORDER=
